<svg id="Layer_1" data-name="Layer 1" xmlns="http://www.w3.org/2000/svg" viewBox="0 0 400 400"><defs><style>.cls-1{fill:#f1eee6;}</style></defs><path class="cls-1" d="M6,188.12H24.68c7.87,0,13.12,4.56,13.12,11.34,0,4.79-2.23,8.44-7.47,9.86v.18c3.76,1.08,5.7,3.24,6.21,8.2.57,5.76.34,10.15,1.77,10.78v.4H30.38c-1-.46-1.14-5-1.48-9.41s-2.85-6.95-8-6.95H14.25v16.36H6Zm8.26,18H23c4.5,0,6.73-2.34,6.73-5.59s-2.11-5.75-6.5-5.75h-9Z"/><path class="cls-1" d="M59.28,225.63h-.11c-1.48,2.22-3.59,3.93-8.61,3.93-6,0-10.2-3.13-10.2-8.95,0-6.44,5.24-8.49,11.74-9.4,4.84-.69,7.07-1.09,7.07-3.31s-1.66-3.48-4.9-3.48c-3.65,0-5.42,1.31-5.65,4.11h-6.9c.23-5.14,4.05-9.64,12.6-9.64,8.78,0,12.32,3.94,12.32,10.78v14.87c0,2.23.34,3.54,1,4.05v.29H60.19A8,8,0,0,1,59.28,225.63Zm.06-7.07v-4.39a21.74,21.74,0,0,1-5.42,1.71c-4,.91-6,1.82-6,4.56s1.82,3.71,4.56,3.71C56.89,224.15,59.34,221.41,59.34,218.56Z"/><path class="cls-1" d="M70,214.28c0-8.72,5.71-15.45,14.6-15.45,7.58,0,12.25,4.39,13.28,10.72H90.29a5.36,5.36,0,0,0-5.36-4.5c-4.67,0-7.07,3.59-7.07,9.23s2.22,9.24,7,9.24a5.46,5.46,0,0,0,5.87-5h7.47c-.52,6.21-5.36,11.17-13.17,11.17C75.75,229.73,70,223,70,214.28Z"/><path class="cls-1" d="M101.52,188.12h7.75v6.95h-7.75Zm0,11.51h7.75v29.25h-7.75Z"/><path class="cls-1" d="M112.46,219.41h7.18c.52,3.37,2.91,4.85,6.39,4.85s5.36-1.31,5.36-3.36c0-2.8-3.71-3.08-7.7-3.88-5.24-1-10.38-2.45-10.38-8.84s5.25-9.35,11.92-9.35c7.69,0,12,3.82,12.54,9.7h-7c-.34-3.14-2.34-4.28-5.64-4.28-3,0-5,1.14-5,3.25,0,2.51,3.87,2.74,8,3.59,4.9,1,10.31,2.4,10.31,9.24,0,5.87-5,9.4-12.31,9.4C117.65,229.73,112.91,225.63,112.46,219.41Z"/><path class="cls-1" d="M141.93,199.63h7.47v3.94h.17a9.54,9.54,0,0,1,8.49-4.74,8.75,8.75,0,0,1,8.1,5.13h.11a10.21,10.21,0,0,1,8.78-5.13c6.16,0,9.63,4,9.63,10.38v19.67h-7.75V210.52c0-3.31-1.65-5-4.5-5-3.25,0-5.25,2.51-5.25,6.39v17h-7.75V210.52c0-3.31-1.65-5-4.5-5-3.14,0-5.25,2.51-5.25,6.39v17h-7.75Z"/><path class="cls-1" d="M16.47,262.56,4.28,243.12h9.29L21.09,256h.12l7.52-12.88h9l-12,19.38,13.51,21.38H29.64L21.32,269h-.11l-8.44,14.88H3.31Z"/><path class="cls-1" d="M37.68,269.23c0-8.67,5.87-15.4,14.42-15.4,9.4,0,14.42,7.19,14.42,17.62H45.32c.57,4.5,3.07,7.3,7.46,7.3,3,0,4.79-1.37,5.65-3.59h7.64c-1.09,5.18-5.7,9.57-13.23,9.57C43.15,284.73,37.68,278,37.68,269.23Zm7.75-3.14h13c-.23-3.7-2.68-6.27-6.22-6.27C48.11,259.82,46.11,262.27,45.43,266.09Z"/><path class="cls-1" d="M77.69,258.62h.17a9.53,9.53,0,0,1,8.67-4.79c6,0,10.09,4.56,10.09,10.95v19.1H88.86v-18c0-3.14-1.82-5.36-5.07-5.36-3.42,0-5.93,2.74-5.93,6.73v16.59H70.11V254.63h7.58Z"/><path class="cls-1" d="M100,269.28c0-8.72,6.21-15.45,15.27-15.45s15.28,6.73,15.28,15.45-6.21,15.45-15.28,15.45S100,278,100,269.28Zm22.68,0c0-5.7-2.67-9.57-7.41-9.57s-7.41,3.87-7.41,9.57,2.63,9.52,7.41,9.52S122.66,275,122.66,269.28Z"/><path class="cls-1" d="M134.12,254.63h7.47v3.65h.17a10.24,10.24,0,0,1,8.61-4.45c7.75,0,12.71,6.33,12.71,15.45,0,9.47-5.13,15.45-12.66,15.45-4.1,0-6.78-1.65-8.43-4.16h-.12v12.88h-7.75Zm21.09,14.88c0-5.53-1.94-9.4-6.72-9.4s-6.79,4.16-6.79,9.4,2.45,8.78,7.07,8.78C152.7,278.29,155.21,275,155.21,269.51Z"/><path class="cls-1" d="M174.42,258.45h.17c2.11-3.08,4.5-4.62,8.49-4.62,6,0,10.09,4.56,10.09,10.95v19.1h-7.75v-18c0-3.14-1.82-5.36-5.07-5.36-3.42,0-5.93,2.74-5.93,6.73v16.59h-7.75V243.12h7.75Z"/><path class="cls-1" d="M196.53,269.28c0-8.72,6.22-15.45,15.28-15.45s15.28,6.73,15.28,15.45-6.21,15.45-15.28,15.45S196.53,278,196.53,269.28Zm22.69,0c0-5.7-2.68-9.57-7.41-9.57s-7.41,3.87-7.41,9.57,2.62,9.52,7.41,9.52S219.22,275,219.22,269.28Z"/><path class="cls-1" d="M238.26,280.23h-.12v3.65h-7.46V243.12h7.75v15.05h.17a9.15,9.15,0,0,1,8.15-4.34c7.36,0,12.6,6.33,12.6,15.45,0,9.47-5,15.45-12.37,15.45A9.74,9.74,0,0,1,238.26,280.23Zm13.22-11c0-5.41-2.16-9.17-6.49-9.17-4.91,0-6.73,3.93-6.73,9.34s2.68,8.78,7,8.78C249.26,278.23,251.48,274.93,251.48,269.28Z"/><path class="cls-1" d="M262.94,243.12h7.75v6.95h-7.75Zm0,11.51h7.75v29.25h-7.75Z"/><path class="cls-1" d="M293.21,280.63h-.12c-1.48,2.22-3.59,3.93-8.6,3.93-6,0-10.21-3.13-10.21-8.95,0-6.44,5.25-8.49,11.74-9.4,4.85-.69,7.07-1.09,7.07-3.31s-1.65-3.48-4.9-3.48c-3.65,0-5.41,1.31-5.64,4.11h-6.9c.23-5.14,4.05-9.64,12.6-9.64,8.78,0,12.31,3.94,12.31,10.78v14.87c0,2.23.34,3.54,1,4v.29h-7.47A7.87,7.87,0,0,1,293.21,280.63Zm.05-7.07v-4.39a21.52,21.52,0,0,1-5.41,1.71c-4.05.91-6,1.82-6,4.56s1.82,3.71,4.56,3.71C290.81,279.15,293.26,276.41,293.26,273.56Z"/><path class="cls-1" d="M6,298.12h15.9c10.89,0,17.9,8.78,17.9,20.8,0,6.62-2.22,12.43-6.5,16-3,2.51-6.95,3.94-12.08,3.94H6Zm14.65,33.63c7.75,0,10.77-4.73,10.77-12.83s-3.53-13.73-10.55-13.73H14.25v26.56Z"/><path class="cls-1" d="M43.66,298.12h7.75v6.95H43.66Zm0,11.51h7.75v29.25H43.66Z"/><path class="cls-1" d="M54.38,329.41h7.18c.51,3.37,2.91,4.85,6.39,4.85S73.3,333,73.3,330.9c0-2.8-3.7-3.08-7.69-3.88-5.25-1-10.38-2.45-10.38-8.84s5.25-9.35,11.92-9.35c7.69,0,12,3.82,12.54,9.7h-7c-.34-3.14-2.34-4.28-5.65-4.28-3,0-5,1.14-5,3.25,0,2.51,3.87,2.74,8,3.59,4.9,1,10.31,2.4,10.31,9.24,0,5.87-5,9.4-12.31,9.4C59.57,339.73,54.83,335.63,54.38,329.41Z"/><path class="cls-1" d="M82.7,324.28c0-8.72,5.71-15.45,14.6-15.45,7.58,0,12.26,4.39,13.28,10.72H103a5.36,5.36,0,0,0-5.36-4.5c-4.67,0-7.07,3.59-7.07,9.23s2.23,9.24,7,9.24a5.46,5.46,0,0,0,5.87-5h7.47c-.52,6.21-5.36,11.17-13.17,11.17C88.46,339.73,82.7,333,82.7,324.28Z"/><path class="cls-1" d="M121.7,314.31h.17c1.76-3.31,3.76-5,7.18-5a5,5,0,0,1,1.82.23v6.78h-.17c-5.07-.51-8.72,2.17-8.72,8.32v14.26h-7.75V309.63h7.47Z"/><path class="cls-1" d="M134.23,298.12H142v6.95h-7.76Zm0,11.51H142v29.25h-7.76Z"/><path class="cls-1" d="M147,309.63h7.47v3.94h.17a9.56,9.56,0,0,1,8.49-4.74,8.75,8.75,0,0,1,8.1,5.13h.11a10.22,10.22,0,0,1,8.78-5.13c6.16,0,9.64,4,9.64,10.38v19.67H182V320.52c0-3.31-1.65-5-4.5-5-3.25,0-5.24,2.51-5.24,6.39v17H164.5V320.52c0-3.31-1.65-5-4.5-5-3.14,0-5.25,2.51-5.25,6.39v17H147Z"/><path class="cls-1" d="M194.54,298.12h7.75v6.95h-7.75Zm0,11.51h7.75v29.25h-7.75Z"/><path class="cls-1" d="M214.89,313.62h.17a9.52,9.52,0,0,1,8.67-4.79c6,0,10.09,4.56,10.09,10.95v19.1h-7.76v-18c0-3.14-1.82-5.36-5.07-5.36-3.42,0-5.93,2.74-5.93,6.73v16.59h-7.75V309.63h7.58Z"/><path class="cls-1" d="M256.1,335.63H256c-1.49,2.22-3.59,3.93-8.61,3.93-6,0-10.21-3.13-10.21-8.95,0-6.44,5.25-8.49,11.75-9.4,4.84-.69,7.07-1.09,7.07-3.31s-1.66-3.48-4.91-3.48c-3.64,0-5.41,1.31-5.64,4.11h-6.9c.23-5.14,4.05-9.64,12.6-9.64,8.78,0,12.31,3.94,12.31,10.78v14.87c0,2.23.35,3.54,1,4v.29H257A8,8,0,0,1,256.1,335.63Zm.06-7.07v-4.39a21.74,21.74,0,0,1-5.42,1.71c-4,.91-6,1.82-6,4.56s1.82,3.71,4.56,3.71C253.71,334.15,256.16,331.41,256.16,328.56Z"/><path class="cls-1" d="M266.07,309.63h4.05v-9.12h7.58v9.12h5v5.13h-5v15.51c0,2.17,1.2,2.91,2.91,2.91,1,0,2.28-.06,2.28-.06v5.7s-1.77.11-4.85.11c-3.76,0-7.92-1.48-7.92-7V314.76h-4.05Z"/><path class="cls-1" d="M286.71,298.12h7.75v6.95h-7.75Zm0,11.51h7.75v29.25h-7.75Z"/><path class="cls-1" d="M298.05,324.28c0-8.72,6.21-15.45,15.28-15.45s15.28,6.73,15.28,15.45-6.22,15.45-15.28,15.45S298.05,333,298.05,324.28Zm22.69,0c0-5.7-2.68-9.57-7.41-9.57s-7.41,3.87-7.41,9.57,2.62,9.52,7.41,9.52S320.74,330,320.74,324.28Z"/><path class="cls-1" d="M339.77,313.62H340a9.5,9.5,0,0,1,8.66-4.79c6,0,10.09,4.56,10.09,10.95v19.1H351v-18c0-3.14-1.83-5.36-5.08-5.36-3.42,0-5.92,2.74-5.92,6.73v16.59h-7.76V309.63h7.58Z"/><path class="cls-1" d="M3.93,383.39c0-5.82,3.71-9.47,9-12.14-2.34-2.86-3.42-5.14-3.42-8.44,0-5.3,4.22-9.41,10.55-9.41,6.15,0,10.66,3.77,10.66,9.35,0,5-2.91,7.53-7.3,9.81l5.42,7A26.48,26.48,0,0,0,30.44,373h6.9a28.23,28.23,0,0,1-3.88,12.59l6.44,8.33H30.44l-2.11-2.68a18.11,18.11,0,0,1-10.83,3.53C8.55,394.73,3.93,389.77,3.93,383.39ZM24.28,386l-7.46-9.74c-3.48,2.1-4.68,4.38-4.68,7,0,3.08,2.45,5.19,5.65,5.19A9.91,9.91,0,0,0,24.28,386ZM20,368.17c2.68-1.6,3.42-3.37,3.42-5.3a3.19,3.19,0,1,0-6.38.05C17,364.75,18.24,366.51,20,368.17Z"/><path class="cls-1" d="M52.84,353.12H61.1v16h16v-16h8.27v40.76H77.12v-18h-16v18H52.84Z"/><path class="cls-1" d="M88.58,379.23c0-8.67,5.87-15.4,14.42-15.4,9.41,0,14.42,7.19,14.42,17.62H96.22c.57,4.5,3.07,7.3,7.46,7.3,3,0,4.79-1.37,5.65-3.59H117c-1.09,5.18-5.7,9.57-13.23,9.57C94.05,394.73,88.58,388,88.58,379.23Zm7.75-3.14h13c-.23-3.7-2.68-6.27-6.22-6.27C99,369.82,97,372.27,96.33,376.09Z"/><path class="cls-1" d="M138.51,390.63h-.11c-1.49,2.22-3.59,3.93-8.61,3.93-6,0-10.21-3.13-10.21-8.95,0-6.44,5.25-8.49,11.75-9.4,4.84-.69,7.07-1.09,7.07-3.31s-1.66-3.48-4.91-3.48c-3.64,0-5.41,1.31-5.64,4.11H121c.23-5.14,4-9.64,12.6-9.64,8.78,0,12.32,3.94,12.32,10.78v14.87c0,2.23.34,3.54,1,4v.29h-7.47A8,8,0,0,1,138.51,390.63Zm.06-7.07v-4.39a21.74,21.74,0,0,1-5.42,1.71c-4,.91-6,1.82-6,4.56s1.82,3.71,4.56,3.71C136.12,389.15,138.57,386.41,138.57,383.56Z"/><path class="cls-1" d="M150.88,353.12h7.75v40.76h-7.75Z"/><path class="cls-1" d="M161.82,364.63h4.05v-9.12h7.58v9.12h5v5.13h-5v15.51c0,2.17,1.2,2.91,2.91,2.91,1,0,2.28-.06,2.28-.06v5.7s-1.77.11-4.85.11c-3.76,0-7.92-1.48-7.92-7V369.76h-4.05Z"/><path class="cls-1" d="M190.09,368.45h.17c2.11-3.08,4.51-4.62,8.5-4.62,6,0,10.09,4.56,10.09,10.95v19.1H201.1v-18c0-3.14-1.83-5.36-5.08-5.36-3.42,0-5.93,2.74-5.93,6.73v16.59h-7.75V353.12h7.75Z"/><polygon class="cls-1" points="386.91 6 12.68 6 6 6 6 6 6 175 13.09 175 13.09 13.09 386.91 13.09 386.91 386.91 220.37 386.91 220.37 394 386.91 394 386.91 394 394 394 394 393.64 394 386.56 394 13.09 394 6 386.91 6"/></svg>