<svg id="Layer_1" data-name="Layer 1" xmlns="http://www.w3.org/2000/svg" viewBox="70 70 630 210"><defs><style>.cls-1{fill:#f1eee6}</style></defs><path class="cls-1" d="M271.89 273.38V74.47H73v88.29h17.16V91.63h164.58v164.59h-70.58v17.16h87.73z"/><path class="cls-1" d="M73 247c0-14.61 9.3-23.78 22.62-30.51-5.87-7.16-8.59-12.89-8.59-21.2 0-13.31 10.6-23.62 26.49-23.62 15.47 0 26.79 9.45 26.79 23.48 0 12.6-7.31 18.91-18.34 24.63l13.61 17.62a65.66 65.66 0 004-16.61h17.33a71.36 71.36 0 01-9.74 31.65l16.18 20.91H139.6l-5.3-6.73a45.55 45.55 0 01-27.21 8.88C84.61 275.53 73 263.06 73 247zm51.12 6.44L105.37 229c-8.73 5.3-11.74 11-11.74 17.47 0 7.74 6.16 13 14.18 13a24.93 24.93 0 0016.32-6zm-10.88-44.68c6.73-4 8.59-8.45 8.59-13.32a7.85 7.85 0 00-8-8.16c-4.58 0-8 3.43-8 8.3-.03 4.61 3.17 9.05 7.42 13.21zM299.07 74.47h19.4c8.16 0 13.61 4.74 13.61 11.78 0 5-2.31 8.75-7.75 10.23v.18c3.9 1.12 5.91 3.37 6.45 8.52.59 6 .35 10.53 1.83 11.18v.41h-8.22c-1.07-.47-1.19-5.2-1.54-9.76s-3-7.22-8.28-7.22h-6.93v17h-8.57zm8.57 18.7h9.11c4.68 0 7-2.43 7-5.8s-2.19-6-6.75-6h-9.35zM354 113.4h-.12c-1.54 2.31-3.73 4.08-8.93 4.08-6.22 0-10.59-3.25-10.59-9.29 0-6.68 5.44-8.81 12.18-9.76 5-.71 7.34-1.12 7.34-3.43s-1.72-3.61-5.09-3.61c-3.79 0-5.62 1.36-5.86 4.26h-7.15c.23-5.32 4.2-10 13.07-10 9.11 0 12.78 4.09 12.78 11.19v15.44c0 2.3.35 3.66 1.06 4.2v.29h-7.75a8.16 8.16 0 01-.94-3.37zm.06-7.34v-4.55a22.25 22.25 0 01-5.62 1.77c-4.2 1-6.27 1.9-6.27 4.74s1.89 3.84 4.73 3.84c4.58 0 7.1-2.86 7.1-5.8zM364.68 101.63c0-9 5.91-16 15.14-16 7.87 0 12.72 4.55 13.78 11.12h-7.86a5.58 5.58 0 00-5.57-4.75c-4.85 0-7.33 3.73-7.33 9.59s2.31 9.58 7.22 9.58c3.25 0 5.56-1.71 6.09-5.15h7.75c-.53 6.45-5.56 11.6-13.67 11.6-9.58.04-15.55-6.94-15.55-15.99zM397 74.47h8v7.22h-8zm0 12h8v30.35h-8zM407.92 107h7.46c.53 3.49 3 5 6.62 5s5.56-1.36 5.56-3.49c0-2.9-3.84-3.19-8-4-5.45-1.07-10.77-2.55-10.77-9.17s5.44-9.7 12.36-9.7c8 0 12.43 4 13 10.05h-7.28c-.35-3.25-2.42-4.43-5.85-4.43-3.14 0-5.21 1.18-5.21 3.37 0 2.6 4 2.84 8.34 3.72 5.09 1.07 10.71 2.49 10.71 9.59 0 6.09-5.21 9.76-12.78 9.76-8.77-.04-13.69-4.3-14.16-10.7zM438.09 86.42h7.75v4.09h.16a9.91 9.91 0 018.81-4.91 9.07 9.07 0 018.41 5.32h.11a10.59 10.59 0 019.11-5.32c6.39 0 10 4.14 10 10.76v20.41h-8v-19c0-3.43-1.72-5.2-4.68-5.2-3.37 0-5.44 2.6-5.44 6.62v17.63h-8.05v-19c0-3.43-1.71-5.2-4.67-5.2-3.25 0-5.44 2.6-5.44 6.62v17.63h-8.05zM310 146.77l-12.71-20.17h9.64l7.81 13.4h.12l7.81-13.37H332l-12.43 20.12 14 22.18h-10L315 153.46h-.12l-8.75 15.44h-9.82z"/><path class="cls-1" d="M331.07 153.7c0-9 6.1-16 15-16 9.76 0 15 7.46 15 18.28H339c.59 4.68 3.19 7.58 7.75 7.58 3.13 0 5-1.42 5.86-3.73h7.92c-1.12 5.38-5.91 9.94-13.72 9.94-10.06.02-15.74-7.02-15.74-16.07zm8.05-3.26h13.49c-.24-3.84-2.78-6.51-6.45-6.51-4.26 0-6.33 2.55-7.04 6.51zM372.07 142.69h.18a9.86 9.86 0 019-5c6.27 0 10.47 4.74 10.47 11.36v19.85h-8v-18.63c0-3.26-1.89-5.57-5.26-5.57-3.55 0-6.15 2.84-6.15 7v17.2h-8.11v-30.35h7.87zM394.79 153.76c0-9.06 6.45-16 15.85-16s15.86 7 15.86 16-6.45 16-15.86 16-15.85-6.95-15.85-16zm23.54 0c0-5.92-2.78-9.94-7.69-9.94s-7.69 4-7.69 9.94 2.72 9.88 7.69 9.88 7.69-3.97 7.69-9.88zM429.57 138.55h7.75v3.79h.18a10.61 10.61 0 018.93-4.62c8.05 0 13.2 6.57 13.2 16 0 9.82-5.33 16-13.14 16-4.26 0-7-1.72-8.75-4.32h-.12V186h-8.05zM451.46 154c0-5.74-2-9.76-7-9.76s-7 4.32-7 9.76 2.55 9.11 7.34 9.11c4.06-.01 6.66-3.38 6.66-9.11zM471 142.52h.17c2.19-3.2 4.68-4.8 8.82-4.8 6.27 0 10.47 4.74 10.47 11.36v19.82h-8.06v-18.63c0-3.26-1.89-5.57-5.26-5.57-3.55 0-6.15 2.84-6.15 7v17.2h-8.05v-42.3H471zM493.53 153.76c0-9.06 6.45-16 15.85-16s15.86 7 15.86 16-6.45 16-15.86 16-15.85-6.95-15.85-16zm23.54 0c0-5.92-2.78-9.94-7.69-9.94s-7.69 4-7.69 9.94 2.72 9.88 7.69 9.88 7.69-3.97 7.69-9.88zM536.42 165.11h-.12v3.79h-7.75v-42.3h8.05v15.62h.17a9.5 9.5 0 018.46-4.5c7.63 0 13.08 6.57 13.08 16 0 9.82-5.21 16-12.84 16a10.09 10.09 0 01-9.05-4.61zm13.72-11.35c0-5.62-2.25-9.53-6.74-9.53-5.09 0-7 4.08-7 9.7s2.78 9.11 7.27 9.11c4.17-.04 6.47-3.43 6.47-9.28zM561.62 126.6h8v7.22h-8zm0 12h8v30.3h-8zM592.62 165.53h-.12c-1.54 2.31-3.72 4.08-8.93 4.08-6.21 0-10.59-3.25-10.59-9.29 0-6.68 5.44-8.81 12.19-9.76 5-.71 7.33-1.12 7.33-3.43s-1.71-3.61-5.09-3.61c-3.78 0-5.62 1.36-5.85 4.26h-7.16c.24-5.32 4.2-10 13.07-10 9.11 0 12.78 4.08 12.78 11.18v15.44c0 2.31.36 3.67 1.07 4.2v.3h-7.75a8.14 8.14 0 01-.95-3.37zm.06-7.34v-4.55a22.25 22.25 0 01-5.62 1.77c-4.2 1-6.27 1.9-6.27 4.73s1.89 3.85 4.73 3.85c4.62.01 7.16-2.84 7.16-5.8zM299.07 178.73h16.5c11.3 0 18.58 9.11 18.58 21.59 0 6.86-2.31 12.9-6.75 16.63-3.13 2.6-7.21 4.08-12.54 4.08h-15.79zm15.2 34.9c8.05 0 11.18-4.91 11.18-13.31s-3.67-14.26-10.94-14.26h-6.87v27.57zM337.34 178.73h8.05V186h-8.05zm0 12h8.05V221h-8.05zM348.05 211.21h7.46c.53 3.49 3 5 6.62 5s5.56-1.36 5.56-3.49c0-2.9-3.84-3.2-8-4-5.45-1.06-10.77-2.54-10.77-9.17s5.44-9.7 12.36-9.7c8 0 12.43 4 13 10.06H367c-.35-3.26-2.42-4.44-5.85-4.44-3.14 0-5.21 1.18-5.21 3.37 0 2.61 4 2.84 8.34 3.73 5.09 1.07 10.71 2.49 10.71 9.58 0 6.1-5.21 9.77-12.78 9.77-8.77 0-13.68-4.26-14.16-10.71zM377 205.88c0-9 5.92-16 15.14-16 7.87 0 12.72 4.56 13.79 11.12h-7.83a5.56 5.56 0 00-5.56-4.67c-4.85 0-7.34 3.73-7.34 9.58s2.31 9.59 7.22 9.59c3.25 0 5.56-1.72 6.09-5.15h7.75c-.53 6.45-5.56 11.6-13.66 11.6-9.6-.03-15.6-7.02-15.6-16.07zM417 195.53h.18c1.83-3.43 3.9-5.21 7.45-5.21a5.24 5.24 0 011.9.24v7h-.18c-5.27-.53-9.05 2.25-9.05 8.64V221h-8.05v-30.32H417zM429.57 190.68h8.05V221h-8.05zM442.47 190.68h7.75v4.08h.18a9.91 9.91 0 018.81-4.91 9 9 0 018.4 5.33h.12a10.58 10.58 0 019.11-5.33c6.39 0 10 4.14 10 10.77V221h-8v-19c0-3.43-1.71-5.21-4.67-5.21-3.37 0-5.44 2.61-5.44 6.63V221h-8.05v-19c0-3.43-1.71-5.21-4.67-5.21-3.25 0-5.44 2.61-5.44 6.63V221h-8zM491.4 178.73h8V186h-8zm0 12h8V221h-8zM512.1 194.82h.18a9.86 9.86 0 019-5c6.27 0 10.47 4.73 10.47 11.36V221h-8v-18.61c0-3.25-1.89-5.56-5.27-5.56-3.55 0-6.15 2.84-6.15 7V221h-8v-30.32h7.86zM554.46 217.66h-.12c-1.53 2.3-3.72 4.08-8.93 4.08-6.21 0-10.59-3.26-10.59-9.29 0-6.68 5.44-8.81 12.19-9.76 5-.71 7.33-1.13 7.33-3.43s-1.71-3.61-5.08-3.61c-3.79 0-5.62 1.36-5.86 4.26h-7.16c.24-5.33 4.2-10 13.08-10 9.11 0 12.77 4.08 12.77 11.18v15.44c0 2.31.36 3.67 1.07 4.2v.3h-7.75a8.3 8.3 0 01-.95-3.37zm.06-7.34v-4.55a22.66 22.66 0 01-5.62 1.77c-4.2 1-6.27 1.89-6.27 4.73s1.89 3.85 4.73 3.85c4.64 0 7.16-2.84 7.16-5.8zM564.4 190.68h4.2v-9.47h7.87v9.47h5.21V196h-5.21v16.1c0 2.24 1.24 3 3 3 1 0 2.36-.06 2.36-.06V221s-1.83.12-5 .12c-3.91 0-8.23-1.54-8.23-7.28V196h-4.2zM585.4 178.73h8.05V186h-8.05zm0 12h8.05V221h-8.05zM596.76 205.88c0-9 6.45-16 15.86-16s15.85 7 15.85 16-6.45 16-15.85 16-15.86-6.95-15.86-16zm23.55 0c0-5.91-2.78-9.94-7.69-9.94s-7.69 4-7.69 9.94 2.72 9.88 7.69 9.88 7.69-3.96 7.69-9.88zM639.42 194.82h.17a9.88 9.88 0 019-5c6.27 0 10.47 4.73 10.47 11.36V221h-8v-18.61c0-3.25-1.89-5.56-5.26-5.56-3.55 0-6.16 2.84-6.16 7V221h-8v-30.32h7.87zM296.94 262.27c0-6 3.84-9.82 9.34-12.6-2.42-3-3.55-5.33-3.55-8.76 0-5.5 4.38-9.76 10.95-9.76 6.39 0 11.06 3.91 11.06 9.7 0 5.21-3 7.81-7.57 10.18l5.62 7.28a27.16 27.16 0 001.66-6.87h7.15a29.39 29.39 0 01-4 13.08l6.69 8.63h-9.82l-2.19-2.78A18.79 18.79 0 01311 274c-9.27 0-14.06-5.11-14.06-11.73zm21.12 2.66l-7.75-10.11c-3.61 2.18-4.85 4.55-4.85 7.21 0 3.2 2.54 5.39 5.85 5.39a10.32 10.32 0 006.75-2.49zm-4.5-18.46c2.78-1.65 3.55-3.49 3.55-5.5a3.32 3.32 0 10-6.63.06c0 1.9 1.31 3.73 3.08 5.44zM346.87 230.86h8.58v16.56h16.62v-16.56h8.58v42.29h-8.58v-18.63h-16.62v18.63h-8.58zM383.55 258c0-9 6.09-16 15-16 9.76 0 15 7.45 15 18.28h-22c.59 4.67 3.19 7.57 7.74 7.57 3.14 0 5-1.42 5.86-3.73H413c-1.12 5.39-5.92 9.94-13.73 9.94-10.04-.06-15.72-7.06-15.72-16.06zm8-3.25h13.49c-.23-3.85-2.78-6.51-6.45-6.51-4.22-.05-6.29 2.49-7 6.46zM435 269.78h-.12c-1.54 2.31-3.73 4.08-8.93 4.08-6.21 0-10.59-3.25-10.59-9.28 0-6.69 5.44-8.82 12.18-9.76 5-.71 7.34-1.13 7.34-3.44s-1.72-3.6-5.09-3.6c-3.78 0-5.62 1.36-5.85 4.26h-7.16c.23-5.33 4.2-10 13.07-10 9.11 0 12.78 4.08 12.78 11.18v15.44c0 2.31.35 3.67 1.06 4.2v.29h-7.79a8.32 8.32 0 01-.9-3.37zm.06-7.33v-4.56a22.65 22.65 0 01-5.62 1.78c-4.2.94-6.27 1.89-6.27 4.73s1.89 3.84 4.73 3.84c4.57 0 7.1-2.84 7.1-5.79zM447.38 230.86h8.05v42.29h-8.05zM458.33 242.81h4.2v-9.47h7.86v9.47h5.21v5.32h-5.21v16.09c0 2.25 1.25 3 3 3 1 0 2.37-.06 2.37-.06v5.92s-1.84.11-5 .11c-3.9 0-8.22-1.53-8.22-7.27v-17.79h-4.2zM487.26 246.77h.17c2.19-3.19 4.68-4.79 8.82-4.79 6.27 0 10.47 4.73 10.47 11.36v19.81h-8.05v-18.63c0-3.25-1.89-5.56-5.26-5.56-3.55 0-6.15 2.84-6.15 7v17.21h-8.05v-42.31h8.05z"/></svg>