<svg xmlns="http://www.w3.org/2000/svg" viewBox="0 0 82.16 83.05"><defs><style>.cls-1{fill:#232424;}</style></defs><g id="Layer_2" data-name="Layer 2"><g id="Layer_1-2" data-name="Layer 1"><polygon class="cls-1" points="82.16 82.16 82.16 0 0 0 0 0 0 36.47 7.09 36.47 7.09 7.09 75.07 7.09 75.07 75.08 45.91 75.08 45.91 82.16 82.16 82.16"/><path class="cls-1" d="M0,71.28c0-6,3.85-9.82,9.35-12.6-2.43-3-3.55-5.33-3.55-8.76,0-5.5,4.38-9.76,10.94-9.76,6.39,0,11.06,3.9,11.06,9.7,0,5.21-3,7.81-7.57,10.18l5.62,7.27a27.08,27.08,0,0,0,1.66-6.86h7.16a29.48,29.48,0,0,1-4,13.07l6.69,8.64H27.51l-2.19-2.78a18.79,18.79,0,0,1-11.24,3.67C4.79,83.05,0,77.9,0,71.28Zm21.12,2.66L13.37,63.82C9.76,66,8.52,68.38,8.52,71c0,3.19,2.54,5.38,5.86,5.38A10.28,10.28,0,0,0,21.12,73.94Zm-4.5-18.46C19.4,53.82,20.17,52,20.17,50a3.31,3.31,0,1,0-6.62.06C13.55,51.93,14.85,53.77,16.62,55.48Z"/></g></g></svg>