<svg id="Layer_1" data-name="Layer 1" xmlns="http://www.w3.org/2000/svg" viewBox="0 0 500 500"><path d="M57.38,245H76.79c8.16,0,13.6,4.73,13.6,11.77,0,5-2.31,8.76-7.75,10.24v.17c3.91,1.13,5.92,3.37,6.45,8.52.59,6,.36,10.53,1.83,11.18v.42H82.7c-1.06-.48-1.18-5.21-1.54-9.76s-3-7.22-8.28-7.22H66v17H57.38ZM66,263.64h9.11c4.67,0,7-2.42,7-5.79s-2.19-6-6.74-6H66Z"/><path d="M112.28,283.87h-.12c-1.54,2.31-3.72,4.09-8.93,4.09-6.21,0-10.59-3.26-10.59-9.29,0-6.69,5.44-8.82,12.19-9.76,5-.71,7.33-1.13,7.33-3.43s-1.71-3.61-5.08-3.61c-3.79,0-5.62,1.36-5.86,4.26H94.06c.24-5.33,4.2-10,13.07-10,9.11,0,12.78,4.08,12.78,11.18v15.44c0,2.31.36,3.67,1.07,4.2v.3h-7.75A8.15,8.15,0,0,1,112.28,283.87Zm.06-7.33V272a22.24,22.24,0,0,1-5.62,1.78c-4.2.95-6.27,1.89-6.27,4.73s1.89,3.85,4.73,3.85C109.8,282.34,112.34,279.5,112.34,276.54Z"/><path d="M123,272.1c0-9.05,5.92-16,15.14-16,7.87,0,12.72,4.56,13.79,11.12h-7.87a5.56,5.56,0,0,0-5.56-4.67c-4.85,0-7.34,3.73-7.34,9.58s2.31,9.59,7.22,9.59c3.25,0,5.56-1.72,6.09-5.15h7.75c-.53,6.45-5.56,11.59-13.66,11.59C129,288.13,123,281.15,123,272.1Z"/><path d="M155.29,245h8.05v7.22h-8.05Zm0,11.95h8.05v30.35h-8.05Z"/><path d="M166.24,277.43h7.45c.53,3.49,3,5,6.63,5s5.56-1.37,5.56-3.5c0-2.89-3.85-3.19-8-4-5.44-1.06-10.77-2.54-10.77-9.17s5.45-9.7,12.37-9.7c8,0,12.42,4,13,10.06h-7.27c-.36-3.26-2.43-4.44-5.86-4.44-3.14,0-5.21,1.18-5.21,3.37,0,2.61,4,2.84,8.35,3.73,5.08,1.06,10.7,2.48,10.7,9.58,0,6.1-5.2,9.76-12.78,9.76C171.62,288.13,166.71,283.87,166.24,277.43Z"/><path d="M196.41,256.9h7.75V261h.18a9.89,9.89,0,0,1,8.81-4.91,9.07,9.07,0,0,1,8.4,5.32h.12a10.58,10.58,0,0,1,9.11-5.32c6.39,0,10,4.14,10,10.77v20.41h-8.05V268.2c0-3.43-1.71-5.21-4.67-5.21-3.37,0-5.45,2.6-5.45,6.63v17.63h-8V268.2c0-3.43-1.72-5.21-4.67-5.21-3.26,0-5.45,2.6-5.45,6.63v17.63h-8Z"/><path d="M68.27,317.25,55.61,297.08h9.64l7.81,13.37h.12L81,297.08h9.34L77.91,317.19l14,22.18h-10L73.3,323.93h-.12l-8.76,15.44H54.6Z"/><path d="M89.39,324.17c0-9,6.09-16,15-16,9.76,0,15,7.45,15,18.28h-22c.6,4.67,3.2,7.57,7.75,7.57,3.14,0,5-1.42,5.86-3.73h7.93c-1.13,5.39-5.92,9.94-13.73,9.94C95.07,340.26,89.39,333.22,89.39,324.17Zm8-3.25h13.49c-.24-3.85-2.78-6.51-6.45-6.51C100.21,314.41,98.14,317,97.43,320.92Z"/><path d="M130.38,313.17h.18a9.85,9.85,0,0,1,9-5c6.27,0,10.48,4.73,10.48,11.36v19.81H142V320.74c0-3.25-1.89-5.56-5.27-5.56-3.54,0-6.15,2.84-6.15,7v17.21h-8V309h7.86Z"/><path d="M153.1,324.23c0-9.05,6.45-16,15.86-16s15.85,7,15.85,16-6.45,16-15.85,16S153.1,333.28,153.1,324.23Zm23.55,0c0-5.92-2.78-9.94-7.69-9.94s-7.69,4-7.69,9.94,2.72,9.88,7.69,9.88S176.65,330.15,176.65,324.23Z"/><path d="M187.89,309h7.75v3.78h.18a10.6,10.6,0,0,1,8.93-4.61c8,0,13.19,6.57,13.19,16,0,9.82-5.32,16-13.13,16-4.26,0-7-1.71-8.76-4.32h-.12v20.48h-8Zm21.89,15.44c0-5.74-2-9.76-7-9.76s-7,4.31-7,9.76,2.54,9.11,7.33,9.11C207.17,333.58,209.78,330.21,209.78,324.47Z"/><path d="M229.3,313h.18c2.19-3.19,4.67-4.79,8.81-4.79,6.27,0,10.47,4.73,10.47,11.36v19.81h-8V320.74c0-3.25-1.89-5.56-5.27-5.56-3.55,0-6.15,2.84-6.15,7v17.21h-8V297.08h8Z"/><path d="M251.84,324.23c0-9.05,6.45-16,15.86-16s15.85,7,15.85,16-6.45,16-15.85,16S251.84,333.28,251.84,324.23Zm23.55,0c0-5.92-2.78-9.94-7.69-9.94s-7.69,4-7.69,9.94,2.72,9.88,7.69,9.88S275.39,330.15,275.39,324.23Z"/><path d="M294.73,335.59h-.12v3.78h-7.75V297.08h8.05v15.61h.18a9.48,9.48,0,0,1,8.46-4.49c7.63,0,13.07,6.57,13.07,16,0,9.82-5.2,16-12.84,16A10.09,10.09,0,0,1,294.73,335.59Zm13.73-11.36c0-5.62-2.25-9.52-6.75-9.52-5.08,0-7,4.08-7,9.7s2.78,9.11,7.28,9.11C306.15,333.52,308.46,330.09,308.46,324.23Z"/><path d="M319.94,297.08h8v7.21h-8Zm0,11.95h8v30.34h-8Z"/><path d="M350.94,336h-.12c-1.54,2.31-3.73,4.08-8.94,4.08-6.21,0-10.59-3.25-10.59-9.28,0-6.69,5.45-8.82,12.19-9.76,5-.71,7.34-1.13,7.34-3.44s-1.72-3.6-5.09-3.6c-3.79,0-5.62,1.36-5.86,4.26h-7.16c.24-5.33,4.2-10,13.08-10,9.11,0,12.78,4.08,12.78,11.18v15.44c0,2.31.35,3.67,1.06,4.2v.29h-7.75A8.16,8.16,0,0,1,350.94,336Zm.05-7.33v-4.56a22.52,22.52,0,0,1-5.62,1.78c-4.2.94-6.27,1.89-6.27,4.73s1.9,3.84,4.74,3.84C348.45,334.46,351,331.62,351,328.67Z"/><path d="M57.38,349.21H73.89c11.3,0,18.57,9.11,18.57,21.59,0,6.86-2.3,12.89-6.74,16.62-3.14,2.6-7.22,4.08-12.54,4.08H57.38Zm15.21,34.9c8,0,11.18-4.91,11.18-13.31s-3.67-14.26-11-14.26H66v27.57Z"/><path d="M95.66,349.21h8v7.21h-8Zm0,11.94h8V391.5h-8Z"/><path d="M106.37,381.68h7.45c.53,3.49,3,5,6.63,5s5.56-1.36,5.56-3.49c0-2.9-3.85-3.19-8-4-5.44-1.07-10.77-2.55-10.77-9.17s5.45-9.7,12.37-9.7c8,0,12.42,4,13,10.05h-7.27c-.36-3.25-2.43-4.43-5.86-4.43-3.14,0-5.21,1.18-5.21,3.37,0,2.6,4,2.84,8.35,3.73,5.08,1.06,10.7,2.48,10.7,9.58,0,6.09-5.2,9.76-12.78,9.76C111.75,392.39,106.84,388.13,106.37,381.68Z"/><path d="M135.35,376.36c0-9.05,5.92-16,15.15-16,7.87,0,12.72,4.55,13.78,11.12h-7.87a5.56,5.56,0,0,0-5.56-4.68c-4.85,0-7.33,3.73-7.33,9.59s2.31,9.58,7.22,9.58c3.25,0,5.56-1.71,6.09-5.15h7.75c-.53,6.45-5.56,11.6-13.67,11.6C141.33,392.39,135.35,385.41,135.35,376.36Z"/><path d="M175.35,366h.17c1.84-3.44,3.91-5.21,7.46-5.21a5.15,5.15,0,0,1,1.89.24v7h-.18c-5.26-.54-9.05,2.24-9.05,8.63V391.5h-8V361.15h7.75Z"/><path d="M187.89,361.15h8V391.5h-8Z"/><path d="M200.79,361.15h7.75v4.09h.17a9.92,9.92,0,0,1,8.82-4.91,9.07,9.07,0,0,1,8.4,5.32h.12a10.58,10.58,0,0,1,9.11-5.32c6.39,0,10,4.14,10,10.76V391.5h-8V372.45c0-3.43-1.72-5.2-4.67-5.2-3.38,0-5.45,2.6-5.45,6.62V391.5h-8V372.45c0-3.43-1.72-5.2-4.68-5.2-3.25,0-5.44,2.6-5.44,6.62V391.5h-8Z"/><path d="M249.71,349.21h8v7.21h-8Zm0,11.94h8V391.5h-8Z"/><path d="M270.42,365.3h.18a9.85,9.85,0,0,1,9-5c6.27,0,10.47,4.73,10.47,11.35V391.5H282V372.87c0-3.26-1.89-5.56-5.26-5.56-3.55,0-6.15,2.84-6.15,7V391.5h-8.05V361.15h7.87Z"/><path d="M312.78,388.13h-.12c-1.54,2.31-3.73,4.08-8.93,4.08-6.22,0-10.59-3.25-10.59-9.29,0-6.68,5.44-8.81,12.18-9.76,5-.71,7.34-1.12,7.34-3.43s-1.72-3.61-5.09-3.61c-3.78,0-5.62,1.36-5.85,4.26h-7.16c.23-5.32,4.2-10,13.07-10,9.11,0,12.78,4.08,12.78,11.18V387c0,2.3.35,3.66,1.06,4.2v.29h-7.75A8.16,8.16,0,0,1,312.78,388.13Zm.06-7.34v-4.55a22.25,22.25,0,0,1-5.62,1.77c-4.2.95-6.27,1.9-6.27,4.74s1.89,3.84,4.73,3.84C310.29,386.59,312.84,383.75,312.84,380.79Z"/><path d="M322.72,361.15h4.2v-9.46h7.87v9.46H340v5.33h-5.2v16.09c0,2.25,1.24,3,3,3,1,0,2.37-.06,2.37-.06v5.91s-1.84.12-5,.12c-3.9,0-8.22-1.54-8.22-7.27V366.48h-4.2Z"/><path d="M343.72,349.21h8v7.21h-8Zm0,11.94h8V391.5h-8Z"/><path d="M355.08,376.36c0-9.05,6.45-16,15.85-16s15.86,7,15.86,16-6.45,16-15.86,16S355.08,385.41,355.08,376.36Zm23.54,0c0-5.92-2.78-9.94-7.69-9.94s-7.69,4-7.69,9.94,2.72,9.88,7.69,9.88S378.62,382.27,378.62,376.36Z"/><path d="M397.73,365.3h.18a9.85,9.85,0,0,1,9-5c6.27,0,10.47,4.73,10.47,11.35V391.5h-8V372.87c0-3.26-1.9-5.56-5.27-5.56-3.55,0-6.15,2.84-6.15,7V391.5h-8.05V361.15h7.87Z"/><path d="M55.25,432.75c0-6,3.85-9.83,9.35-12.61-2.43-2.95-3.55-5.32-3.55-8.75,0-5.5,4.38-9.76,10.94-9.76,6.39,0,11.07,3.9,11.07,9.7,0,5.21-3,7.81-7.58,10.17l5.62,7.28a27.08,27.08,0,0,0,1.66-6.86h7.16a29.6,29.6,0,0,1-4,13.07l6.68,8.64H82.76l-2.19-2.78a18.77,18.77,0,0,1-11.24,3.67C60,444.52,55.25,439.37,55.25,432.75Zm21.12,2.66-7.75-10.12c-3.61,2.19-4.85,4.56-4.85,7.22,0,3.19,2.54,5.38,5.86,5.38A10.34,10.34,0,0,0,76.37,435.41ZM71.88,417c2.78-1.66,3.54-3.49,3.54-5.5a3.31,3.31,0,1,0-6.62.06C68.8,413.4,70.1,415.23,71.88,417Z"/><path d="M105.18,401.33h8.58V417.9h16.62V401.33H139v42.3h-8.58V425H113.76v18.63h-8.58Z"/><path d="M141.86,428.43c0-9,6.1-16,15-16,9.76,0,15,7.46,15,18.28h-22c.59,4.68,3.19,7.58,7.75,7.58,3.14,0,5-1.42,5.86-3.73h7.92c-1.12,5.38-5.91,9.94-13.72,9.94C147.54,444.52,141.86,437.48,141.86,428.43Zm8-3.26H163.4c-.24-3.84-2.78-6.5-6.45-6.5C152.69,418.67,150.62,421.21,149.91,425.17Z"/><path d="M193.27,440.26h-.12c-1.53,2.31-3.72,4.08-8.93,4.08-6.21,0-10.59-3.25-10.59-9.29,0-6.68,5.44-8.81,12.19-9.76,5-.71,7.33-1.12,7.33-3.43s-1.71-3.61-5.08-3.61c-3.79,0-5.62,1.36-5.86,4.26h-7.16c.24-5.32,4.2-10,13.08-10,9.11,0,12.77,4.08,12.77,11.18v15.44c0,2.31.36,3.67,1.07,4.2v.3h-7.75A8.3,8.3,0,0,1,193.27,440.26Zm.06-7.34v-4.55a22.25,22.25,0,0,1-5.62,1.77c-4.2.95-6.27,1.9-6.27,4.73s1.89,3.85,4.73,3.85C190.79,438.72,193.33,435.88,193.33,432.92Z"/><path d="M205.7,401.33h8v42.3h-8Z"/><path d="M216.64,413.28h4.2v-9.46h7.87v9.46h5.21v5.33h-5.21V434.7c0,2.25,1.24,3,3,3,1,0,2.36,0,2.36,0v5.91s-1.83.12-5,.12c-3.9,0-8.22-1.54-8.22-7.28v-17.8h-4.2Z"/><path d="M245.57,417.25h.18c2.19-3.2,4.67-4.8,8.81-4.8,6.27,0,10.47,4.74,10.47,11.36v19.82h-8V425c0-3.26-1.9-5.57-5.27-5.57-3.55,0-6.15,2.84-6.15,7v17.21h-8v-42.3h8Z"/><polygon points="445.4 443.48 445.4 443.13 445.4 55.48 57.4 55.48 57.4 55.48 57.4 227.72 65.99 227.72 65.99 64.07 436.81 64.07 436.81 434.9 282.29 434.9 282.29 443.48 445.4 443.48"/></svg>