<?xml version="1.0" standalone="no"?>
<!DOCTYPE svg PUBLIC "-//W3C//DTD SVG 20010904//EN"
 "http://www.w3.org/TR/2001/REC-SVG-20010904/DTD/svg10.dtd">
<svg version="1.0" xmlns="http://www.w3.org/2000/svg"
 width="664.000000pt" height="664.000000pt" viewBox="0 0 664.000000 664.000000"
 preserveAspectRatio="xMidYMid meet">
<metadata>
Created by potrace 1.11, written by Peter Selinger 2001-2013
</metadata>
<g transform="translate(0.000000,664.000000) scale(0.100000,-0.100000)"
fill="#000000" stroke="none">
<path d="M40 5185 l0 -1455 283 2 282 3 1 1160 c1 638 2 1165 3 1170 1 7 912
10 2711 10 1799 0 2710 -3 2711 -10 1 -5 2 -1226 3 -2713 l1 -2702 -75 0 c-41
-1 -564 -1 -1162 -1 -831 0 -1087 -3 -1090 -12 -2 -7 -4 -133 -3 -282 l0 -270
1448 -1 1447 0 0 3278 0 3278 -3280 0 -3280 0 0 -1455z"/>
<path d="M1347 3424 c-1 -1 -37 -4 -79 -7 -395 -31 -703 -299 -755 -657 -19
-131 -2 -313 39 -425 30 -81 105 -225 127 -245 4 -3 20 -25 36 -50 17 -25 38
-54 48 -64 9 -11 17 -23 17 -28 0 -4 -24 -20 -52 -34 -193 -98 -383 -250 -494
-394 -138 -181 -197 -371 -189 -610 4 -120 7 -145 20 -200 11 -46 15 -56 53
-150 62 -152 189 -296 347 -390 53 -32 77 -44 160 -80 28 -12 59 -22 135 -40
94 -24 104 -26 200 -39 65 -9 357 -7 415 2 233 38 434 113 614 231 71 45 75
47 88 30 8 -11 46 -60 86 -111 l72 -92 387 -1 c223 0 389 4 392 9 4 5 3 11 -2
13 -4 1 -65 77 -135 168 -70 91 -133 172 -140 180 -7 8 -26 33 -42 55 -16 22
-32 42 -35 45 -3 3 -17 21 -30 40 -13 19 -27 37 -31 40 -14 11 -109 140 -109
149 0 5 4 11 9 13 5 1 36 59 69 128 77 158 120 270 163 430 22 80 24 86 39
170 6 30 12 66 15 80 2 14 7 46 10 73 3 26 7 67 10 91 3 30 1 45 -8 48 -27 9
-562 2 -563 -7 -1 -37 -19 -144 -36 -220 -11 -49 -20 -94 -21 -100 -2 -5 -5
-14 -8 -20 -6 -9 -16 -45 -24 -85 -2 -8 -12 -37 -22 -64 l-20 -49 -29 39 c-16
21 -31 41 -34 44 -3 3 -17 21 -32 42 -15 20 -33 42 -40 50 -7 8 -17 21 -23 30
-5 9 -69 92 -141 184 -72 93 -134 174 -137 181 -5 7 26 30 85 64 150 85 264
175 346 273 61 73 122 195 137 273 3 16 8 39 11 53 10 41 13 244 3 291 -15 80
-17 87 -42 148 -69 171 -191 302 -356 386 -63 31 -144 62 -184 70 -10 3 -26 6
-35 9 -49 15 -274 39 -285 30z m160 -553 c47 -23 111 -93 120 -131 3 -14 10
-30 15 -37 17 -21 6 -149 -18 -219 -35 -98 -106 -184 -213 -254 l-46 -31 -40
44 c-55 60 -109 127 -114 141 -2 6 -7 13 -11 16 -10 8 -60 113 -66 140 -21
100 -5 193 43 258 26 35 91 80 133 92 45 14 152 4 197 -19z m-360 -1390 c21
-27 48 -62 60 -78 12 -15 65 -84 117 -153 53 -68 104 -135 114 -148 9 -14 22
-29 27 -36 6 -6 43 -54 82 -106 40 -52 76 -99 81 -105 4 -5 28 -36 52 -68 l43
-58 -24 -22 c-51 -47 -208 -131 -264 -141 -13 -3 -29 -7 -34 -10 -5 -3 -26 -8
-47 -11 -22 -3 -45 -8 -53 -11 -28 -9 -188 -5 -237 7 -165 39 -288 154 -331
309 -20 69 -2 279 26 314 5 6 12 22 16 36 13 43 83 134 148 193 60 54 165 134
179 136 3 1 24 -21 45 -48z"/>
</g>
</svg>
